<svg xmlns="http://www.w3.org/2000/svg" width="1044" height="333"><path d="M144.9 11.2c3.4 1.3 6 2.8 8.1 5.8q1.4 5 2 10c-4.6.7-7.4-.5-11.3-2.8l-1.3-.8c-2.4-1.5-4.2-2.8-5.4-5.4-.2-1.8-.2-1.8-.1-3.7v-1.9l.1-1.4c3-1.5 4.8-.6 7.9.2M170 11a12 12 0 0 1 4 4q.4 5.7-2.1 10.9c-2.6 2.9-5.2 3.4-8.9 4.1-2.3-3-2.4-5.3-2.3-9 .5-3.2 1.9-5 4.3-7q2.3-1.6 5-3m827.6 22.6A81 81 0 0 1 1022 61l.8 1.5a102 102 0 0 1 7.2 73.5 82 82 0 0 1-38.8 49.8 80 80 0 0 1-33 7.3c-21.3.5-42-4.8-57.9-19.7a95 95 0 0 1-26.5-66.6 121 121 0 0 1 6-36.2 74 74 0 0 1 36.6-41A86 86 0 0 1 939 22l2.5-.6c19.2-3.1 40 1.2 56 12.2M922 44.3a79 79 0 0 0-12.4 34.5C904.4 107 906 142.5 922 167c6.2 8 14.6 14.7 24.7 16.7 11.8 1.5 23.3.3 33.2-6.8C992.5 166 997.3 149 999 133q.3-4.6.2-9.2v-8.3l.1-8.3c.2-23.2-2.8-49.6-19.5-67.1a40 40 0 0 0-29.3-10.4A37 37 0 0 0 922 44.3M334 22h49c-1.1 4.5-2.6 6-5.6 9.2-2.8 3.6-2.5 7.6-2.5 12V77l.1 22 6-6 1.8-1.7q4.5-4.5 8.6-9.2a219 219 0 0 1 15.3-15.8l8-8 9.4-9.4 3.8-3.7 2.3-2.3 2-2c5.2-5.5 5.2-5.5 5.3-8.9 0-2-.2-2.7-1.6-4.2L433 26l-1.1-1v-3h34v4q-2.3 2-4.8 3.6-7.3 5-13.4 11.5a86 86 0 0 1-8.4 7.8l-3.7 3.4A333 333 0 0 1 422 65.7l-10.3 10c-3.5 3.4-3.5 3.4-3.8 5.8.4 3.8 2.3 6.8 4.4 9.8l1 1.5 3.2 4.6 2.3 3.3 4.3 6.4 7.3 10.8 2.3 3.5 6.2 9.4 2.9 4.2 17.9 27c5 7.6 9.8 15 15.8 21.6 2.6 3.1 2.6 3.1 2.6 6.4l-35.7.2H432c-2.1-.2-2.1-.2-4.1-2.2l5-5a38 38 0 0 0-8-15.6l-4.7-6.9-2-3-2.3-3.5a2208 2208 0 0 0-31-46c-3.8.3-6.5 1.3-9 4.1-2.4 4.5-1.7 10.2-1.6 15.2v22.8l.1 8.1v3.9c0 14.6 0 14.6 3.5 20.9q2.7 2.5 6 4l-1 3h-48c0-4 0-4 1-5.2l1.4-1c4-3.8 4.5-8.4 4.8-13.7v-14.4l.1-10.7V48.4c.2-13.6.2-13.6-3.3-19.4q-2.4-2.1-5-4zm144 0h51c-1.1 4.5-1.1 4.5-4 6.5a13 13 0 0 0-5 6.5l-.2 5.8v129.9c0 3.5.6 6.2 2.2 9.3 3.6 1.3 7.6 1.2 11.5 1.2H545c9.7 0 19.5-.2 28.3-4.9l1.5-.8c10.9-6 16.3-16 19.9-27.6l.6-2 .5-1.9.5-1.7c.7-1.3.7-1.3 2.2-2 1.5-.3 1.5-.3 3.5.7q-.6 15.4-1.8 30.9l-.4 4.4-.4 5.2c-.4 2.5-.4 2.5-2.4 8.5H481c1-4.3 2-5 5-8 1.1-3.2 1.1-6.4 1.1-9.7v-11.5l.1-11.2v-7l.1-66.3V49.7c.2-14.3.2-14.3-3.3-19.7q-2.3-1.8-4.8-3l-1.2-1zm129 0h81l9.3-.1h18.8c1.9.1 1.9.1 2.9 1.1l.7 3.9.3 2.5.4 2.7.4 2.8.8 5.9.9 6L724 58q1 5.9.9 11.9l-4 2a88 88 0 0 1-6.1-13.9c-3.2-9-6.1-16.8-15.1-21.3L698 36l-1.8-.9a41 41 0 0 0-18-3.2h-24.5c-1.7.1-1.7.1-5.7 1.1l-1 61 20.1-.8 6.4-.2 5-.3h2.5c5.1-.3 8.7-1 13-3.7 1.5-2 1.5-2 2.4-4.2l1-2.2.6-1.6h4v41l-3 1c-3.5-3-4.4-6.4-6-10.6-1.3-3-2.8-4.7-5.7-6.3-7.9-2.8-16-2.9-24.4-3.3l-4.6-.2-11.3-.6.4 42.7.2 13.1v14l.1 2v1.7c.4 1.9 1 3 2.3 4.5a79 79 0 0 0 51-5c13.3-7.6 18.4-22.2 23-36l4 1q.2 12.9-1.6 25.6l-.8 6.7-.5 4.3-.3 2-.2 1.9-.2 1.6q-1 4-2.4 7.9H607v-3q2.2-1.9 4.5-3.4c3.5-3.7 3.8-8.8 3.8-13.6V47.7c0-15 0-15-2.3-19.7-2.6-1.2-2.6-1.2-5-2zm127 0 66.6-.3c9-.1 17.8 0 26.7 1.6l2 .4C840 25.7 850.5 31 857 40a52 52 0 0 1 7.7 37.7A40 40 0 0 1 855 95l-1.6 1.9c-7.7 8-19.7 10-30.4 11.1l21.6 32.6 1.6 2.5 3 4.8c16.3 25.8 16.3 25.8 23.8 28.1l1.7.6 4.3 1.4a28 28 0 0 1-17 12q-4.6.7-9.4.6h-2.3c-6.3-.1-9.6-2-14-6.3-4.6-5-8.2-10.5-11.7-16.4l-1.7-2.8-3.4-5.6-3.8-6.3a699 699 0 0 1-16.1-27.7 196 196 0 0 0-10.6-17 17 17 0 0 0-12.2-7l-2.8-.5.3 27 .1 12.4.2 16.7c.2 21.3.2 21.3 5.3 26.8l5.1 5.1c-1 1-1 1-3 1.1h-30.3L734 190c1.1-2.5 2-4 4-6 3.7-3.7 4.3-7.8 4.3-13V46.8l.1-7.2q.1-5.8-3.4-10.5c-1.3-.9-1.3-.9-2.7-1.6L734 26zm40 11v61l17 1 6 1c10 1 20 .7 28.1-5.7 6.8-6.8 8.2-15.4 8.3-24.7 0-9.6-2.3-19.4-8.6-27-9-8.5-20.7-8.7-32.5-9H790c-6.2 0-9.5 1.3-15.9 3.4M195 23c3.9 1.9 6.3 3.8 8 7.8 1.2 4 1 7.2 0 11.2-1.8.3-1.8.3-4 0-3.9-4-7.1-9.3-7-15 1.4-2.4 1.4-2.4 3-4m-78.7 3.8c4.2 0 6.4.5 9.7 3.2 2.2 2.5 2.4 4.8 2.7 8.1q0 1.4.3 2.7V43c-1 1-1 1-3.7 1.3-4 0-6.5-1.7-9.3-4.3a18 18 0 0 1-5-12c1.6-1.6 3-1.2 5.3-1.2m23.7 4c9 1.2 9 1.2 12 4.2q1.8 4.3 2 9l-2 2c-3.4-.4-6.2-2-9-3.7l-2.7-1.5A18 18 0 0 1 135 34c1.7-2 2.4-3 5-3.2m38.7 1.2h4.3c.4 3.5.6 6.7-1.4 9.7-3 3.2-7.4 5.2-11.6 6.3-2.3-.4-2.3-.4-4-1-1.4-3.4-.8-6 .3-9.4 1.2-2.8 3.3-4 6-5.2q3.2-.6 6.4-.5M90 35c1.6 1.7 2 2.7 2.2 5-.5 5-1.3 8.4-4.8 12-1.4 1-1.4 1-4 1.6-3-.7-3.8-1-5.4-3.6-.9-3.2-1.5-6.4-.5-9.6Q81.7 33 90 35m100 2c1.9.6 1.9.6 4 2a17 17 0 0 1 1 13l-1 2h-2c-3-4-4.4-6.9-3.8-11.9.6-3.9.6-3.9 1.8-5.1m34 6c-.4 5.3-2.2 8.3-6 12-1.9 1.6-2.7 2-5.2 2l-2.4-.3-2.4-.3c-2-.4-2-.4-3-1.4-.6-3.6-.6-6.8 1.6-9.8 5-5.3 11-4.4 17.4-2.2m-119.2 3.8c5.7.1 5.7.1 8.2 2.2 2.3 3 4.1 5.6 3.8 9.4L116 60c-3 1-4.5 1.2-7.5-.1-3.8-2.6-7-5.2-8.4-9.6L100 48c1.5-1.5 2.7-1.2 4.8-1.2M136 48c3.4 1.4 5.3 2.7 7 6 .2 4-.2 7-2.7 10.1-2.3.9-2.3.9-5 .3-3.5-2.1-3.5-2.1-4.3-4.4-.1-5.2 1.5-8.2 5-12m61 0 1 4Zm40.8 2.9c2.8-.1 4.7-.2 7.1 1.1l1.1 1c-1.4 4.8-4 7.1-8 10a17 17 0 0 1-10 1c-2-1.2-2-1.2-3-3 0-3.2.8-4.7 2.7-7.3 3.3-2.5 6.2-2.6 10.1-2.8M183 54c.9 4 1.5 7.7 0 11.6-2.4 3.4-6.6 6-10.6 6.7-1.4 0-1.4 0-3.4-.3-1.3-3.3-2.4-6.4-1.5-10 2-4 4.5-6 8.8-7.6q3.3-.7 6.7-.4M70 56c3.7 0 6.8 0 9.8 2.5 2.9 3.2 5 6.3 6.2 10.5-5 2.3-5 2.3-7.6 1.6A21 21 0 0 1 70 64q-.4-4 0-8m-24 1c10.4-1 10.4-1 14.1 1.4A17 17 0 0 1 65 70c-3 1.3-5.6 2.4-8.9 1.5-4-2.2-8-5.3-10.1-9.5zm48 0c4.4 1.2 7.1 2.3 10 6 2 3.9 2.3 6.8 1 11-3.5.4-6.7.6-9.8-1.4-2.8-2.6-3.5-5.8-4.1-9.5-.1-2.1-.1-2.1 1.3-4.7zm31 2 2 4 .8 1.5c2.2 4.8 2.9 9.3 3.2 14.5l-4-4v-2h-2a12 12 0 0 1 0-8zm74 2c.4 3.7.6 6.8-1.6 9.9-2.5 2.7-4.9 2.9-8.4 3.1-2.2-5-2.2-5-1.6-7.7 1.1-2.5 2-4 4.5-5.2q3.6-.2 7.1-.1m14.7.8c3.6 0 6.2 1.4 9.3 3.2v2h-3l-.1 1.8c-1.2 2.8-2.5 3.8-5.1 5.4a14 14 0 0 1-8.8.8l-2-2c.1-3.5 1-5.3 3.5-7.7L210 63c1-1 1-1 3.7-1.2M254 66c1.5.8 1.5.8 3 2q1.4 5.8-1.3 10.9C253 82 253 82 251 83c-2.6.3-2.6.3-5 0-2-2-2-2-2.2-4 .6-6.2.6-6.2 2.3-8.4A23 23 0 0 1 250 68l2.3-1.2zm-142 2c4.5 1 7.3 2.5 10.2 6.2 1.5 3.3.6 6.4-.2 9.8l-.6 2.9-.4 2.1v2c-9.8.5-9.8.5-13-1.2a13 13 0 0 1-4-6.8c4.1-1.7 7.5-3 12-3-1-3-2-6-3.1-8.8-.9-2.2-.9-2.2-.9-3.2m128 4c1 1 1 1 1 2.5-.2 3.5-.8 5.8-3.5 8.4-3.8 2.8-7.9 3-12.5 3.1-2.3-4.8-2.3-4.8-1.4-7.9 1.5-3 3-5.3 6.2-6.6q5.1-1 10.2.5M67 74h2v2l1.8-.1A20 20 0 0 1 84 79l1.9 1.2 1.1.8-1-5h3l5 9c-3 4-3 4-4 5h-2l-.3-1.4C87 87 87 87 85.6 86.2l-1.8-.6-2-.7-4-1.5c-4.5-1.6-8-3.5-10.8-7.4zm-15 4c2.5 0 3.8 0 6 1 2.6 2.7 4.7 6.2 5 10l-2 2h-3l-1 2-3-2-1.6-1C51 89 51 89 50 88c-.2-1.8-.2-1.8-.2-4v-2c.2-2 .2-2 2.2-4m-13 3c1.8 1.5 1.8 1.5 3 3a14 14 0 0 1 0 4l2 1-1 3 3 1-1 2c-15.3-2.6-15.3-2.6-20-9-.7-2.2-.7-2.2-1-4 4.7-4 9.4-3 15-1m163 0c-.5 3.8-2.1 5.5-5 8l-2.1.9c-2.4 1.4-2.7 2.8-3.4 5.4q-1.4 4-3.5 7.7l-3-1c-.6-5 .5-7.5 3.6-11.5Q191 88 194 86h2l.3-2c.7-2 .7-2 2.1-2.7 1.6-.3 1.6-.3 3.6-.3m12.3-.5c2.7.5 2.7.5 3.7 1.5.2 3.7.2 7.6-2.2 10.5-3.2 2.3-5.8 3-9.8 2.5q-1.2-3.4-1-7c2-3.8 4.7-7.4 9.3-7.5M268 85q2.9 2.1 5 5c-.6 2.5-1 3-3 4.7a16 16 0 0 1-11 1.3 54 54 0 0 1-8-4c1.7-3.8 3.3-5.4 7-7.3 3.5-1.2 6.5-1 10 .3"/><path d="M148 62h1c.3 9.5.3 9.5-1 13.3-1.7 5.3-1.7 11.1-2 16.7h2l.6-2.4c1.2-3.7 3.5-6.7 5.8-9.9q3.3-4.5 5.6-9.7c1.6 1 1.6 1 3 3 .4 5.8-2.5 9.8-5.8 14.3A58 58 0 0 0 148 106l2.3-1.5 3-1.9 1.4-1q3.2-2 6.6-3.6c1.7-1 1.7-1 2.3-2.5l.2-1.6.2-2.9 2 1c.7 4 .7 6.9-1.4 10.4-2.5 3.3-5 6.3-8.4 8.8-3.5 3-4 6-4.5 10.3l-.4 5.7A41 41 0 0 1 148 141q-.2 3.4-.2 7l-.1 1.9c0 4.7 0 4.7 1.8 7l1.5 1.1a26 26 0 0 0 7.2-10.8l.8-1.8c2.2-5.2 4-10.7 2-16.2q-2-7.5-1-15.2l2-2c2.8 2 4.7 3.8 5.6 7.3l.4 6.7a54 54 0 0 0 1-33l-1-1c-.2-1.8-.2-1.8-.2-4v-2c.2-2 .2-2 2.2-4q3.3 5.3 6 11c2-2.5 2.2-4.2 2.3-7.4.3-3.4.8-5.2 3.3-7.7L184 76c1.7 7.9.3 13.8-2 21.4q-2 6.7-2 13.6l.8-1c3.7-4.2 7.8-5.6 13.2-7-1.5 6.8-5.9 9.9-11.4 13.7L181 118v2l9-3 1 3-1.4 1.1c-5.7 4.7-5.7 4.7-7.4 7.8L181 131h-2l-.9 2.3-3.1 6.7 1.3-1c3.8-2.9 7-4.8 11.7-6v-2l2.3-1.3a12 12 0 0 0 5.7-6.7l1.4-6.5A39 39 0 0 1 204 101c2.6-.7 2.6-.7 5-1q-1.3 6.4-3 12.8-.9 3-1 6.2a47 47 0 0 0 16.7-18c2.3-3.5 5.3-6.2 8.3-9l3 1-1 2-4 7.3q-1 1.5-1.8 3.2l-2.5 4.5-.8 1.4-2.9 5.6c10.8-4.7 10.8-4.7 14-7 5.5-4 14.5-8.2 21.3-8h2l3.9.1c4.6.1 8.5-.6 12.8-2.1-.3 1.4-.3 1.4-1 3-6.3 3.7-14.7 4.5-21.8 5.8a36 36 0 0 0-15.1 6.8c-3 2-6.3 3.2-9.7 4.5-5.4 2-10 4-14.4 7.9 3.8 1.6 7.4.7 11.4.2l2.3-.3A37 37 0 0 0 237 125h5c.6 1.9.6 1.9 1 4a13 13 0 0 1-7.2 3.6l-1.7.4c-4 1-7.7 1-11.8.9A59 59 0 0 0 199 139h2.4l12.6 2v2a22 22 0 0 1-7.6 1.2 46 46 0 0 0-34.3 14.7 28 28 0 0 0-7.3 21.1v1.7a132 132 0 0 0 2.4 22.8c3.2 22.3 3.2 22.3 10 29 0 .2 0 .2 1 1.1 7.3 7.9 18.7 10 28.7 12.4a94 94 0 0 1 33.2 13.6A49 49 0 0 0 267 269c-1 2-1 2-2.3 2.6-7.7 1.8-13.8-.4-20.7-3.6l-14.1-6.4-2-1c-1.9-.6-1.9-.6-4.9-.6l1.2.6a56 56 0 0 1 10.6 7.4 42 42 0 0 0 15.2 8v2a53 53 0 0 1-25.2-8.4 77 77 0 0 0-18.7-8.7q-5.9-2-12.1-2.9l1.3.7 17.5 8.6A40 40 0 0 1 231 288l-1 2-1.2-1.2-7.1-7.6A27 27 0 0 0 208 273l-1 1c5.2 11.8 17.6 18.2 28 25-3.4 0-4.8-.7-7.7-2.2q-6.7-3-13.6-5.2a286 286 0 0 1-28.6-11L181 279a53 53 0 0 0 17.8 15.4c3.4 2.5 5.2 6 7.2 9.6-3 0-3 0-5.2-1.9-1.8-2.1-1.8-2.1-1.8-4.1l-1.7-.4c-13-3.9-20-13.2-26.9-24.3-1.4-2.3-1.4-2.3-2.4-3.3q.9 11.3 2.4 22.4l.3 2.9A25 25 0 0 0 175 308v2a14 14 0 0 1-7.2-6.3l-1.5-2.3c-2-3.7-2.4-7.1-2.4-11.2v-1.8l.1-1.4h-2l-.6 1.9-3 8.5c-2 7.2-.7 14.4 2.8 20.9l.8 1.7-1 2q-7.5-6.6-8.9-16.5c-.3-5.1.6-9.6 2.7-14.3a30 30 0 0 0 2.6-14.2c0-5-1.7-9.4-3.4-14v1.6a52 52 0 0 1-14 38.4c-1-2-1-2-.5-3.7l1-2 1-2.4 1-2.4c2.9-6.9 4.7-12.1 2.5-19.5l-.9 1.7q-2.8 5.8-7 10.7A70 70 0 0 0 125 318h-2c-.6-9.7.9-17.8 4-27h-2l-1 2-1.4.4c-2.4 1-2.6 2.3-3.6 4.6l-3.1 5.3q-1.2 2.3-1.9 4.7h-2q-1-9.5 5-17 2.3-1.8 5-3.5c7-4.7 8.4-13 10.5-20.7.5-1.8.5-1.8 1.5-3.8h-2l-.7 1.7a25 25 0 0 1-6 6.6l-1.3 1.2q-3 2.7-6.2 5.3A50 50 0 0 0 102 300h-1l.7-7.4q.4-3.4 1.3-6.6c-4.6 3.2-7.8 6.4-9 12q0 3.6 1 7c-3.4-1.5-3.4-1.5-5-3-.9-5 .8-8.6 3-13a34 34 0 0 0-17 21h-1c-1-7.1 1.8-13.3 6-19 3-3 6.3-5 10-7l1.8-1q9.5-5.2 19.2-10l2.4-1.2 1.6-.8v-2h2l.8-2.9c.8-2.5 1-3 3.3-4.5l1.9-.6-1-2c-9 4.6-17.4 9.4-24.7 16.7A10 10 0 0 1 90 279c2.2-7 2.2-7 4-9h2l.7-1.7c1.7-3 3.8-5 6.3-7.3l5.6-5.4c1.4-1.6 1.4-1.6 1.4-3.6l-1.7 1-2.2 1.5-2.1 1.4c-2 1.1-2 1.1-4 1.1v2l-2.2 1.2L89 265l-1.8 1c-8 4.8-13.1 13.4-18.2 21l-2-1a40 40 0 0 1 5.5-11.6l1.8-2.8 1-1.3 1.8-3.6c.9-1.7.9-1.7 3-2.4l1.9-.3v-2l-7.2 3.8-2 1C63 271.9 63 271.9 61 276h-2l-.7 1.6q-2.7 4.9-6.4 9.1l-1.4 1.9L47 293c-.6-1.3-.6-1.3-1-3a51 51 0 0 1 4.5-7.2L54 278l1-1.4c8.4-11.7 19.1-16.3 32-21.6-3.3 0-5.7.8-8.7 2l-1.7.7q-8.1 3.3-15.9 7.4A55 55 0 0 1 40 272c1.5-2.8 2.9-3.6 5.9-4.6l2-.7q3-1 6.1-1.7v-2c10.1-9.8 24-13.8 37.1-17.8 17.4-5.4 30.9-12.5 39.6-29a61 61 0 0 0 3.3-43.7c-1.7-4.2-3.4-7.2-7.6-9.3-5-1.6-10.1-1.3-15.3-1.2q-7.3.1-14.4-1a96 96 0 0 0-36.7 1l-6 1c.2-1.4.2-1.4 1-3l5-2 1.4-1.5c2.4-2.3 5.4-2.7 8.6-3.5l-2.2-.8-2.7-1-2.8-1c-2.3-1.2-2.3-1.2-3.1-2.8L59 146c2-1 3-1 5.2-.4l5 1.8c3.5.8 6.3.3 9.8-.4-9.3-6.7-18.7-12-29.2-16.7l-2.6-1.2-2.4-1c-1.8-1.1-1.8-1.1-2.6-2.7L42 124c6.7.5 12.7 1.9 19 4-7-15.7-7-15.7-14-19 2.8-1.4 4.2-.5 7.1.4l2.8 1 2.1.6v2l1.3.2c2.7 1.3 3.7 3.1 4.7 5.8q1.2 5.5 2 11h2c1.5 1.5 1.5 1.5 3.2 3.6 8.5 10 8.5 10 13.8 11.4v-2h-2c-4-6.8-6-13.3-7.5-21.1-.9-4.5-1.7-7-5.5-9.9l-5-3q-5.2-3-10-7l1-2 1.4.5 6.4 2.4 2.2.9 2.1.8 2 .7q3 1 5.9 1.7l-4.6-9-1.3-2.5A29 29 0 0 1 69 88c7.7 3 9.8 6.4 13.2 13.7 1.8 4 1.8 4 1.8 6.3l2.1.8q3.8 1.6 7.5 3.4 7.6 3.7 15.7 6.3c1.7.5 1.7.5 3.7 1.5q-4.7-6.5-10.1-12.4C93 96.9 93 96.9 93 91c3.3.3 4.7.7 7 3.1l2 2.7 2.1 2.7 1 1.3 3.3 3.7 1.2 1.1 3.5 3.4a36 36 0 0 1 10.2 18.2c1.3 5.1 3 8.5 6.6 12.4 1.1 1.4 1.1 1.4 1.1 3.4l2-1a106 106 0 0 0-11.3-35.7A22 22 0 0 1 119 97h3a42 42 0 0 1 4.9 6.2A60 60 0 0 1 137 124a70 70 0 0 0-5.6-30.7c-1-2.9-1.7-5.4-1.7-8.5v-2c.3-1.8.3-1.8 2.3-3.8a44 44 0 0 1 5.2 11.3l.5 1.7 1.3 4v-1.6l-.2-7.4-.2-2.5a30 30 0 0 1 7-19.5l1.3-1.7zm-66 54c-1.5 4.4-.7 7.5 1.2 11.6l1.5 2.7.9 1.5L88 136l1.3 2.3A25 25 0 0 0 102 150q3.6.5 7.3.6l2 .1 4.7.3v-2c-1.1-.9-1.1-.9-2.7-1.8l-1.7-1-3.6-2c-4-2.3-6.3-4.5-9-8.2l-2.1-2c-2.4-2.6-3-4.6-3.9-8 3.3 1.4 5 3 7.2 5.8A31 31 0 0 0 113 141h3a27 27 0 0 0-6-10h-2l-.6-1.7c-2-3.3-4.6-4.6-7.9-6.4l-1.9-1q-7.4-4.2-15.6-5.9m61 139c-2.5 3.2-3 6.6-3.7 10.5l-1.2 5.8a9 9 0 0 0 .9 4.7l2-5-1-2h2c2.4-4.6 2.2-8.9 2-14zm29 2a46 46 0 0 0 20 22q4.5 1.5 9 2a51 51 0 0 0-18-19l-2-1.6-1.8-1.3-1.6-1.2c-2-1.1-3.4-1-5.6-.9m-19 2 1 2Z"/><path d="M237 98h2l-2 5h-3zm-206.2 2.1c3.8 1.6 6.3 4.5 8.5 8 .9 2.4 1 4.3.7 7-2 2-2 2-3.6 2-3.2-.3-5.5-.7-7.8-3.3a15 15 0 0 1-2.3-11.1c1-2.4 2-2.7 4.5-2.6M273 110c.7 1.2.7 1.2 1 3-1 2.2-1 2.2-2.6 4.6l-1.6 2.3a12 12 0 0 1-8.6 4.3l-4.2-.2c-.8-1.8-1-2.8-.6-4.7 1.5-3.9 3.2-6.5 6.8-8.7 3.2-1.1 6.4-1 9.8-.6m-25.8 6h3.8c-1.3 3-2.2 4.5-5 6-2 .3-2 .3-4 .2h-2.2c-1.8-.2-1.8-.2-3.8-2.2 3.9-3 6.2-4.1 11.2-4M31 123c2.2 1 3.6 2 5 4a17 17 0 0 1 1 5c-2.6 2.2-4 3-7.4 2.9-5-.9-8.5-1.7-11.6-5.9 2.5-6.8 6.2-6.8 13-6m245.2 9.3c1.8 1.7 1.8 1.7 2 3.8l-.2 1.9a18 18 0 0 1-13.4-3c-2.2-1.4-4-1.7-6.6-2 1-2 1-2 2.2-2.6 5-1 11.5-.4 16 2M260 139c0 3.2-.2 6-2.1 8.5a17 17 0 0 1-11 4.8c-3-.5-4.2-2-6-4.2l-.9-1.1c2-4.6 3.8-7.4 8.4-9.7 4.4-.8 7.7-.7 11.6 1.7m-29-1c2.6 2.5 2.6 2.5 3 5q-.2 3.7-2 7c-2.1 1.4-2.1 1.4-4 2v2l-4.2-.4-2.4-.2c-2.5-.4-4.2-1.2-6.4-2.4v-7h2l.8-1.9c2.8-4.7 8.1-5.1 13.2-4.1m-208 1q4.5 2.9 8 7v3a25 25 0 0 1-18 0l-2-2c0-2.4 0-2.4 1-5 3.2-2.7 6.8-4.4 11-3m23.4.6q4.5 1 7.6 4.4c.9 2.2 1 3.6 1 6-1 2-1 2-2.3 2.6-4 1-8 1-11.6-.7-2.4-2.1-3-3.3-3.3-6.4.2-1.5.2-1.5 1.8-3.9 2.4-1.6 3.9-2.2 6.8-2M34 155l5 2 6 1v2c-5 4.4-12.6 9-19.3 9.3-2.8-.5-4.5-1.6-6.7-3.3a18 18 0 0 1 5.4-10c3-1.9 6.2-1.5 9.6-1m161.7 1.5 1.7.1 3.6.4 5.3.6c7.8.9 15.2 1.9 20.8 8 1.6 2.5 1.8 4.4 1.9 7.4-.8 1.6-.8 1.6-2 3-2.8.9-5.2.7-8 0q-6-3.8-9.8-9.7c-3-4-8.6-4.5-13.2-5.3a131 131 0 0 0-11-1c1.6-2.8 1.6-2.8 3.2-3.6 2.6-.6 5-.2 7.5 0m50.1 1.3q2.3 1.4 4.2 3.3l1.4 1.2c2.6 2.4 4.2 4.2 4.6 7.8-4 3.5-7 3.6-12.2 3.5-5.2-1-8-4.1-11-8.2q-2.2-3-3.8-6.3c5-2.7 11.5-3.4 16.8-1.3"/><path d="M196.6 164.2c3 2.2 5 4.3 6.4 7.8q.3 4-1 8c-2 2-2 2-4.6 2-4.7-.9-8.3-4.6-11.4-8a18 18 0 0 1-1-10c2.8-3.8 8-1.4 11.6.2M103 166c-1.4 9.6-1.4 9.6-5.4 13a27 27 0 0 1-10.6 4c-2.3-1-2.3-1-4-2-.4-3.1-.6-5.8.9-8.7 5.5-7 10.5-7.9 19.1-6.3m-44 3a26 26 0 0 1-8 16.8c-2.2 1.3-3.1 1.5-5.7 1l-1.8-.4C42 186 42 186 41 185c-.5-4.3 0-7.1 2.5-10.6 4-3.8 10-6.1 15.5-5.4m10 3c2.2.4 3.3.7 5 2a13 13 0 0 1 1.4 10.3c-2.2 5.2-2.2 5.2-5 6.4-1.7.3-1.7.3-4.4.3-3.9-3.7-3.9-3.7-4.2-7 .3-3.7 1-6.2 3.7-9l2.5-2zm390 41 4 2c-1.5 4-4 5.8-7.2 8.3l-1.5 1c-3.5 2.7-5.9 3-10.3 2.7 1.6-4.5 5-6.6 8.6-9.2l1.9-1.4zm139 0 1 5-6.7 4.5-2 1.3-1.8 1.2-1.8 1.2c-2 1-3.5 1-5.7.8.6-3.2 1.3-4.6 3.8-6.6l1.8-1.3 1.8-1.3 1.8-1.4c4.4-3.4 4.4-3.4 7.8-3.4m-217.2 17.8a263 263 0 0 1 17.8.6h1.5c2.9.3 4.8.7 6.9 2.6.3 2 .3 2 .3 4.6v2.7l-.1 2.8v2.9l-.2 7h-3l-.9-2c-2.4-5.4-4.4-9.6-10.1-12l-1.6-.7c-7.3-2.5-15.2-2-22.4.7a24 24 0 0 0-11 13 41 41 0 0 0 2 31c4 6.8 9.4 10 17 12 6 1.3 8.9 1 15-1v-26l-10-2-1-4h28l.3 25.5v2.1c0 5 0 5-1.7 7.3a29 29 0 0 1-8.4 3.7 57 57 0 0 1-40.9-1.8 38 38 0 0 1-18.6-21 39 39 0 0 1 3-29.8q8.3-13.4 23.5-17.1 7.2-1.4 14.6-1m431.1 7.4A41 41 0 0 1 827 260c1.3 11-.3 20-6.7 29.2A39 39 0 0 1 795 304c-14 1-25.7.5-36.9-8.9a59 59 0 0 1-7.5-9c-5.6-8-5.8-18.3-4.3-27.7a38 38 0 0 1 16.6-22.3 47 47 0 0 1 49 2.2M767 246a33 33 0 0 0-5.2 17.6 42 42 0 0 0 7.8 28c5.7 5.7 11.6 6.7 19.4 6.8 5.4-.2 9-1.6 13-5.4 7-7.6 8.4-14.2 8.4-24.3V266c0-9-3.1-17.4-9.4-24a24.3 24.3 0 0 0-34 4m106-15.2h1.6q9.4-.1 18.8 1l1.7.3 3.9.9c1.7 3.4 1.2 7.2 1.3 11v7.2c-.3 1.8-.3 1.8-1.8 3l-1.5.8-.8-2c-3-6.7-6-11-13.1-13.7a31 31 0 0 0-22.8 1.4c-5.3 3-8.1 7.1-10.2 12.8A47 47 0 0 0 852 284c4 6.4 9.8 10 17 12l3.8.1h4.4l7.8-.1v-26l-11-3 1-3c2.5-1.3 4.7-1.1 7.4-1.1h10.2l8.4.1.7 18.1.2 6.6v2l.1 2v1.7q0 2.4-1 4.6c-1.3.8-1.3.8-3 1.4l-1.8.6-1.9.6-1.8.7a57 57 0 0 1-40-.6c-8.2-4-14.2-9.5-18.5-17.7l-1-1.9c-4-8.3-3-19.3 0-27.8a38 38 0 0 1 20.6-19.7 48 48 0 0 1 19.5-2.8M418 232h58a79 79 0 0 1 1 13v5h-4l-.5-1.4c-1.5-4-2.7-6.5-6.5-8.6-2.7-1.2-5.4-1.2-8.3-1.3l-2.8-.1-3.6-.2-11.3-.4 1 25 9.3-.2 2.8-.1c7-.3 7-.3 9.4-2.6 1.5-2.1 1.5-2.1 2.5-4.1h2q1.1 10 1 20h-3l-1.6-2.4c-1.4-2-2-2.5-4.4-3q-3.5-.4-7-.4h-7c-2-.2-2-.2-5-1.2l1 27 11.1.2h3.5c10.6.2 10.6.2 14.4-3.2q1.9-2.4 3.2-5.2 1.3-2.5 2.8-4.8h3l-1 9.4-.2 2.8-.5 5c-.3 1.8-.3 1.8-1.3 2.8l-5.4.1h-32L418 303c1-2.2 1.8-3.8 3.6-5.4 2-2.2 1.8-4.3 1.8-7v-11l.2-18V250c.1-9.8.1-9.8-1.7-12.8-1.4-1.4-1.4-1.4-2.8-2.4l-1.1-.8zm65 0c17.2-1.9 17.2-1.9 22.1 2q3.2 3.3 5.8 7.3 2.3 3.4 5 6.7l2.8 3.5q6.2 8 13 15.5 3.8 4.4 7.3 9l1 1-.2-22v-10.6c-.2-5.7-.2-5.7-2-7.8q-1.8-1.4-3.8-2.6v-2h19c-1 3-1 3-2.5 4.3-2.2 2.5-2 4.9-2 8V257l-.2 11.4V280l-.3 23c-5.7.2-5.7.2-8.2-1.8l-2.1-2.5-1.2-1.4-3.5-4.3-2.2-2.7-4.4-5.4-8-9.5a310 310 0 0 1-14.8-18.3l-3.8-4.5c-2.8-3.4-2.8-3.4-2.8-5.6h-2l.5 1.9c.9 4.3.6 8.8.6 13.3l.1 6V284l.1 5.8c.1 6.5.1 6.5 1.9 8.6 1.3 1.1 1.3 1.1 3.8 2.6v2h-20l5-6c.5-2.3.7-3.8.6-6v-49c-.1-2.8-.6-4.4-2.6-6.3l-2-1.8zm77 0h57a98 98 0 0 1 1 19h-3l-.7-1.6c-2.2-4.6-3.8-8-8.6-10q-3.4-.7-7-.7l-2.8-.1-3.6-.2-11.3-.4v25l10.2-.1h3.2c6.8-.2 6.8-.2 9.3-2.3l2.4-3.3.9-1.3h2v21c-4-2-4-2-5.5-4s-1.5-2-3.7-2.6h-2.5l-2.4-.1h-3l-9.9-.3v26l11.6.2h3.7c6.4.1 11.1 0 16.1-4.5l1-1.2.8-1.2q1.2-2 1.8-4.3h2l1-2c.3 7-.7 12.9-2 20h-58c2-4 2-4 3.6-4.7l1.4-.3-.5-54v-1.7c0-3-.4-4.6-2.5-6.6l-2-1.7zm97.6 0h2.4q5.8 11.1 10.5 23a823 823 0 0 0 12.2 29.2l1.6 3.6 2.2 5 .6 1.4c1.3 2.8 2.7 4.7 4.9 6.8v2h-24v-2l2-1-.3-3.6-.2-2c-.5-2.4-.5-2.4-3.5-8.4l-27-1c-3 10-3 10-2 14l3 4h-17l3.9-7.2a104 104 0 0 0 7-15.4l3.4-8.2q6.4-15.7 13.2-31.5l1-2.3 1-2.1c0-.3 0-.3.8-1.9 1.2-2.4 1.4-2.4 4.3-2.5m-4.6 19q-4.7 9-8.2 18.5L641 279h23q-2.8-8.6-6-16.8l-.8-2q-2-4.7-4.2-9.2m38-19h28v2l-2.4 1.7c-2.3 1.8-2.6 2.2-3.2 5.2-.6 5.4-.5 10.8-.5 16.2v12.4l.1 27.5 13.1-.4c7-.2 10.9-1.2 15.7-6.3l1.3-1.3.9-1c1.2 2.9 1.1 5.6 1.1 8.6v3c-.1 2.4-.1 2.4-1.1 3.4l-4.8.1h-28.1L693 303c1.9-3.9 1.9-3.9 3-5l.2-7.3v-7.8l.3-29.4v-9.6l.1-1.6c0-2.2-.2-3.9-1.7-5.5l-2.8-2-1.1-.8zm222.6-.1h14.9l9.5.1c-.2 1.3-.2 1.3-1 3l-2 1.3c-2 1.7-2 1.7-2.5 4.2v13.9l.1 18.1v11.6l.1 5.3v1.5c0 3.2.6 5.4 2.3 8.1l2 1v3h-26c1-3 1-3 2.5-4.3 2-2.3 2-4.4 2-7.3V254l.1-3.7c.2-11.1.2-11.1-3.1-15.1-1.4-1.4-1.4-1.4-2.5-2.2 1-1 1-1 3.6-1.1m31.4.1h56c1 15 1 15 0 20a20 20 0 0 1-6.4-9.6c-.6-1.4-.6-1.4-1.9-2.1a71 71 0 0 0-16.1-2l-9.6-.3 1 25 7.8-.4h2.4c6.8-.5 6.8-.5 9.8-2.6l1.8-2.6 1.2-2.4c2.4 2.4 2.3 2.9 2.3 6v12.2c-.3 1.8-.3 1.8-2.3 3.8l-.8-1-1-1.4-1.1-1.4c-1.5-1.7-2.8-2.2-5-2.4l-2.2-.1-2.2-.1-2.8-.2-8.9-.4 1 26 10 .3h3.1c6.2.1 10.8-.7 15.9-4.3 2-2.1 2-2.1 3.5-4.2l1.5-2.2 1-1.6c2 2 2 2 2 3.7l-.5 4.1-.3 2.3-.3 2.2c-.7 5.6-.7 5.6-1.9 6.7l-5.4.1h-31.4L945 303c1.8-3.9 1.8-3.9 4-5a28 28 0 0 0 1.2-9.4v-8.7l.3-26.7v-3.6c.2-9.4.2-9.4-1.6-12.4-1.4-1.3-1.4-1.3-2.8-2.3l-1.1-.9zm-769 65 2 1-1 2z"/></svg>